<svg width="70" height="71" viewBox="0 0 70 71" fill="none" xmlns="http://www.w3.org/2000/svg">
<rect x="1" y="1" width="68" height="69" rx="11" fill="#A2D40A"/>
<rect x="1" y="1" width="68" height="69" rx="11" stroke="#A2D40A" stroke-width="2"/>
<path fill-rule="evenodd" clip-rule="evenodd" d="M35.9997 10.4167C29.8785 10.4167 24.9163 15.3789 24.9163 21.5V22.0834H17.333C16.3665 22.0834 15.583 22.8669 15.583 23.8334C15.583 24.7999 16.3665 25.5834 17.333 25.5834H54.6663C55.6328 25.5834 56.4163 24.7999 56.4163 23.8334C56.4163 22.8669 55.6328 22.0834 54.6663 22.0834H47.083V21.5C47.083 15.3789 42.1208 10.4167 35.9997 10.4167ZM35.9997 13.9167C40.1878 13.9167 43.583 17.3119 43.583 21.5V22.0834H28.4163V21.5C28.4163 17.3119 31.8115 13.9167 35.9997 13.9167Z" fill="white"/>
<path d="M21.4085 28.3345C21.3171 27.3723 20.463 26.6664 19.5008 26.7579C18.5386 26.8493 17.8328 27.7034 17.9242 28.6655C18.1446 30.9855 18.5424 33.8441 19.0538 37.5185L19.7107 42.239C20.3388 46.7534 20.695 49.3136 21.4656 51.411C22.8996 55.3142 25.4578 58.4433 28.7478 59.8316C30.5344 60.5855 32.5779 60.5847 35.6201 60.5835H36.3792C39.4215 60.5847 41.465 60.5855 43.2515 59.8316C46.5415 58.4433 49.0997 55.3142 50.5338 51.411C51.3044 49.3136 51.6606 46.7534 52.2886 42.2389L52.9455 37.5185C53.4569 33.8441 53.8547 30.9855 54.0752 28.6655C54.1666 27.7034 53.4607 26.8493 52.4985 26.7579C51.5364 26.6664 50.6823 27.3723 50.5909 28.3345C50.3785 30.5697 49.9915 33.3534 49.4732 37.0776L48.8611 41.476C48.1832 46.3471 47.8727 48.505 47.2485 50.2039C46.0448 53.4802 44.0432 55.6987 41.8908 56.607C40.8403 57.0503 39.5677 57.0834 35.9997 57.0834C32.4316 57.0834 31.159 57.0503 30.1086 56.607C27.9562 55.6987 25.9546 53.4802 24.7508 50.2039C24.1266 48.505 23.8162 46.3471 23.1383 41.476L22.5262 37.0776C22.0079 33.3534 21.6209 30.5697 21.4085 28.3345Z" fill="white"/>
<path d="M33.083 30.8334C33.083 29.8669 32.2995 29.0834 31.333 29.0834C30.3665 29.0834 29.583 29.8669 29.583 30.8334V49.5C29.583 50.4665 30.3665 51.25 31.333 51.25C32.2995 51.25 33.083 50.4665 33.083 49.5V30.8334Z" fill="white"/>
<path d="M42.4163 30.8334C42.4163 29.8669 41.6328 29.0834 40.6663 29.0834C39.6998 29.0834 38.9163 29.8669 38.9163 30.8334V49.5C38.9163 50.4665 39.6998 51.25 40.6663 51.25C41.6328 51.25 42.4163 50.4665 42.4163 49.5V30.8334Z" fill="white"/>
</svg>
