<svg width="72" height="70" viewBox="0 0 72 70" fill="none" xmlns="http://www.w3.org/2000/svg">
<rect x="1" y="1" width="70" height="68" rx="9" fill="#A2D40A"/>
<rect x="1" y="1" width="70" height="68" rx="9" stroke="#A2D40A" stroke-width="2"/>
<rect x="17" y="22.4492" width="27" height="37" rx="8" stroke="white" stroke-width="4"/>
<path d="M47.5146 10.0127C52.7983 10.2806 57 14.6498 57 20V41L56.9873 41.5146C56.7435 46.3239 53.1016 50.2355 48.415 50.8994C48.4807 50.4365 48.5176 49.9635 48.5176 49.4824V46.8057C51.0964 46.1334 53 43.7893 53 41V20C53 16.6863 50.3137 14 47 14H35.8965C33.1071 14 30.762 15.9035 30.0898 18.4824H27.4141C26.9334 18.4824 26.4606 18.5184 25.998 18.584C26.6624 13.8979 30.573 10.2565 35.3818 10.0127L35.8965 10H47L47.5146 10.0127Z" fill="white"/>
</svg>
