<svg width="54" height="54" viewBox="0 0 54 54" fill="none" xmlns="http://www.w3.org/2000/svg">
<path d="M27.5732 3C30.4468 7.96044 42.1465 29.3458 42.1465 37.3672L42.1416 37.7412C41.9462 45.4338 35.7494 51.6386 28.043 51.8818V52.001C27.4214 51.9813 26.8095 51.922 26.21 51.8271C18.9233 51.1534 13.1926 45.1341 13.0049 37.7412L13 37.3672C13 29.3458 24.6106 8.11413 27.5732 3ZM28.043 48.8799C34.2254 48.6343 39.1462 43.5657 39.1465 37.3672C39.1465 35.9151 38.5769 33.4917 37.4473 30.3154C36.3515 27.2345 34.8441 23.7531 33.2236 20.3145C31.4687 16.5904 29.6038 12.9754 28.043 10.0566V48.8799Z" fill="#A2D40A"/>
</svg>
