<svg width="70" height="71" viewBox="0 0 70 71" fill="none" xmlns="http://www.w3.org/2000/svg">
<rect x="1" y="1" width="68" height="69" rx="11" stroke="#A2D40A" stroke-width="2"/>
<path fill-rule="evenodd" clip-rule="evenodd" d="M35.9997 10.4165C29.8785 10.4165 24.9163 15.3787 24.9163 21.4998V22.0832H17.333C16.3665 22.0832 15.583 22.8667 15.583 23.8332C15.583 24.7997 16.3665 25.5832 17.333 25.5832H54.6663C55.6328 25.5832 56.4163 24.7997 56.4163 23.8332C56.4163 22.8667 55.6328 22.0832 54.6663 22.0832H47.083V21.4998C47.083 15.3787 42.1208 10.4165 35.9997 10.4165ZM35.9997 13.9165C40.1878 13.9165 43.583 17.3117 43.583 21.4998V22.0832H28.4163V21.4998C28.4163 17.3117 31.8115 13.9165 35.9997 13.9165Z" fill="#A2D40A"/>
<path d="M21.4085 28.3343C21.3171 27.3721 20.463 26.6663 19.5008 26.7577C18.5386 26.8491 17.8328 27.7032 17.9242 28.6654C18.1446 30.9854 18.5424 33.8439 19.0538 37.5183L19.7107 42.2388C20.3388 46.7532 20.695 49.3134 21.4656 51.4108C22.8996 55.314 25.4578 58.4431 28.7478 59.8314C30.5344 60.5853 32.5779 60.5845 35.6201 60.5833H36.3792C39.4215 60.5845 41.465 60.5853 43.2515 59.8314C46.5415 58.4431 49.0997 55.314 50.5338 51.4108C51.3044 49.3134 51.6606 46.7532 52.2886 42.2387L52.9455 37.5183C53.4569 33.8439 53.8547 30.9854 54.0752 28.6654C54.1666 27.7032 53.4607 26.8491 52.4985 26.7577C51.5364 26.6663 50.6823 27.3721 50.5909 28.3343C50.3785 30.5696 49.9915 33.3532 49.4732 37.0774L48.8611 41.4758C48.1832 46.3469 47.8727 48.5048 47.2485 50.2037C46.0448 53.4801 44.0432 55.6985 41.8908 56.6068C40.8403 57.0501 39.5677 57.0832 35.9997 57.0832C32.4316 57.0832 31.159 57.0501 30.1086 56.6068C27.9562 55.6985 25.9546 53.4801 24.7508 50.2037C24.1266 48.5048 23.8162 46.3469 23.1383 41.4758L22.5262 37.0774C22.0079 33.3532 21.6209 30.5696 21.4085 28.3343Z" fill="#A2D40A"/>
<path d="M33.083 30.8332C33.083 29.8667 32.2995 29.0832 31.333 29.0832C30.3665 29.0832 29.583 29.8667 29.583 30.8332V49.4998C29.583 50.4663 30.3665 51.2498 31.333 51.2498C32.2995 51.2498 33.083 50.4663 33.083 49.4998V30.8332Z" fill="#A2D40A"/>
<path d="M42.4163 30.8332C42.4163 29.8667 41.6328 29.0832 40.6663 29.0832C39.6998 29.0832 38.9163 29.8667 38.9163 30.8332V49.4998C38.9163 50.4663 39.6998 51.2498 40.6663 51.2498C41.6328 51.2498 42.4163 50.4663 42.4163 49.4998V30.8332Z" fill="#A2D40A"/>
</svg>
