<svg width="70" height="70" viewBox="0 0 70 70" fill="none" xmlns="http://www.w3.org/2000/svg">
<rect x="1" y="1" width="68" height="68" rx="11" stroke="#03ADEB" stroke-width="2"/>
<path fill-rule="evenodd" clip-rule="evenodd" d="M35.9997 9.9165C29.8785 9.9165 24.9163 14.8787 24.9163 20.9998V21.5832H17.333C16.3665 21.5832 15.583 22.3667 15.583 23.3332C15.583 24.2997 16.3665 25.0832 17.333 25.0832H54.6663C55.6328 25.0832 56.4163 24.2997 56.4163 23.3332C56.4163 22.3667 55.6328 21.5832 54.6663 21.5832H47.083V20.9998C47.083 14.8787 42.1208 9.9165 35.9997 9.9165ZM35.9997 13.4165C40.1878 13.4165 43.583 16.8117 43.583 20.9998V21.5832H28.4163V20.9998C28.4163 16.8117 31.8115 13.4165 35.9997 13.4165Z" fill="#03ADEB"/>
<path d="M21.4085 27.8343C21.3171 26.8721 20.463 26.1663 19.5008 26.2577C18.5386 26.3491 17.8328 27.2032 17.9242 28.1654C18.1446 30.4854 18.5424 33.3439 19.0538 37.0183L19.7107 41.7388C20.3388 46.2532 20.695 48.8134 21.4656 50.9108C22.8996 54.814 25.4578 57.9431 28.7478 59.3314C30.5344 60.0853 32.5779 60.0845 35.6201 60.0833H36.3792C39.4215 60.0845 41.465 60.0853 43.2515 59.3314C46.5415 57.9431 49.0997 54.814 50.5338 50.9108C51.3044 48.8134 51.6606 46.2532 52.2886 41.7387L52.9455 37.0183C53.4569 33.3439 53.8547 30.4854 54.0752 28.1654C54.1666 27.2032 53.4607 26.3491 52.4985 26.2577C51.5364 26.1663 50.6823 26.8721 50.5909 27.8343C50.3785 30.0696 49.9915 32.8532 49.4732 36.5774L48.8611 40.9758C48.1832 45.8469 47.8727 48.0048 47.2485 49.7037C46.0448 52.9801 44.0432 55.1985 41.8908 56.1068C40.8403 56.5501 39.5677 56.5832 35.9997 56.5832C32.4316 56.5832 31.159 56.5501 30.1086 56.1068C27.9562 55.1985 25.9546 52.9801 24.7508 49.7037C24.1266 48.0048 23.8162 45.8469 23.1383 40.9758L22.5262 36.5774C22.0079 32.8532 21.6209 30.0696 21.4085 27.8343Z" fill="#03ADEB"/>
<path d="M33.083 30.3332C33.083 29.3667 32.2995 28.5832 31.333 28.5832C30.3665 28.5832 29.583 29.3667 29.583 30.3332V48.9998C29.583 49.9663 30.3665 50.7498 31.333 50.7498C32.2995 50.7498 33.083 49.9663 33.083 48.9998V30.3332Z" fill="#03ADEB"/>
<path d="M42.4163 30.3332C42.4163 29.3667 41.6328 28.5832 40.6663 28.5832C39.6998 28.5832 38.9163 29.3667 38.9163 30.3332V48.9998C38.9163 49.9663 39.6998 50.7498 40.6663 50.7498C41.6328 50.7498 42.4163 49.9663 42.4163 48.9998V30.3332Z" fill="#03ADEB"/>
</svg>
