<svg width="70" height="70" viewBox="0 0 70 70" fill="none" xmlns="http://www.w3.org/2000/svg">
<rect x="1" y="1" width="68" height="68" rx="11" stroke="#03ADEB" stroke-width="2"/>
<path d="M18.6271 12.0252C18.6309 11.1762 17.9456 10.4848 17.0966 10.481C16.2475 10.4772 15.5561 11.1624 15.5523 12.0115L15.5337 16.1708C15.5268 17.7182 15.521 19.0089 15.6343 20.0465C15.7532 21.1349 16.0188 22.138 16.6932 23.0093C16.8758 23.2453 17.0768 23.4661 17.2941 23.6696C17.4221 23.7895 17.5558 23.9034 17.6948 24.0109C18.5661 24.6853 19.5692 24.9509 20.6576 25.0698C21.6952 25.1831 22.9858 25.1773 24.5332 25.1704H24.5332L28.6926 25.1518C29.5417 25.148 30.2269 24.4566 30.2231 23.6075C30.2193 22.7584 29.5279 22.0732 28.6788 22.077L24.6083 22.0951C22.9491 22.1025 21.8346 22.1052 20.9914 22.0131C20.928 22.0062 20.8673 21.9988 20.8092 21.991C21.6568 21.0353 22.5995 20.1658 23.6224 19.3973C26.7917 17.0161 30.7291 15.6057 35.0003 15.6057C45.4725 15.6057 53.962 24.0951 53.962 34.5673C53.962 45.0396 45.4725 53.529 35.0003 53.529C24.5281 53.529 16.0387 45.0396 16.0387 34.5673C16.0387 33.7182 15.3504 33.0299 14.5013 33.0299C13.6522 33.0299 12.9639 33.7182 12.9639 34.5673C12.9639 46.7377 22.8299 56.6038 35.0003 56.6038C47.1707 56.6038 57.0368 46.7377 57.0368 34.5673C57.0368 22.3969 47.1707 12.5309 35.0003 12.5309C30.0403 12.5309 25.4589 14.1714 21.7754 16.9389C20.6618 17.7756 19.6301 18.7153 18.6945 19.744L18.691 19.7127C18.5989 18.8695 18.6016 17.755 18.609 16.0958L18.6271 12.0252Z" fill="#03ADEB" stroke="#03ADEB" stroke-linecap="round"/>
</svg>
