<svg width="70" height="70" viewBox="0 0 70 70" fill="none" xmlns="http://www.w3.org/2000/svg">
<rect x="1" y="1" width="68" height="68" rx="11" fill="#A2D40A"/>
<rect x="1" y="1" width="68" height="68" rx="11" stroke="#A2D40A" stroke-width="2"/>
<path d="M18.6271 12.0251C18.6309 11.176 17.9456 10.4846 17.0966 10.4809C16.2475 10.4771 15.5561 11.1623 15.5523 12.0114L15.5337 16.1707C15.5268 17.7181 15.521 19.0088 15.6343 20.0464C15.7532 21.1348 16.0188 22.1378 16.6932 23.0092C16.8758 23.2452 17.0768 23.4659 17.2941 23.6695C17.4221 23.7894 17.5558 23.9033 17.6948 24.0108C18.5661 24.6852 19.5692 24.9508 20.6576 25.0697C21.6952 25.183 22.9858 25.1772 24.5332 25.1702H24.5332L28.6926 25.1517C29.5417 25.1479 30.2269 24.4565 30.2231 23.6074C30.2193 22.7583 29.5279 22.0731 28.6788 22.0769L24.6083 22.095C22.9491 22.1024 21.8346 22.1051 20.9914 22.013C20.928 22.0061 20.8673 21.9987 20.8092 21.9909C21.6568 21.0352 22.5995 20.1656 23.6224 19.3971C26.7917 17.016 30.7291 15.6056 35.0003 15.6056C45.4725 15.6056 53.962 24.095 53.962 34.5672C53.962 45.0394 45.4725 53.5288 35.0003 53.5288C24.5281 53.5288 16.0387 45.0394 16.0387 34.5672C16.0387 33.7181 15.3504 33.0298 14.5013 33.0298C13.6522 33.0298 12.9639 33.7181 12.9639 34.5672C12.9639 46.7376 22.8299 56.6037 35.0003 56.6037C47.1707 56.6037 57.0368 46.7376 57.0368 34.5672C57.0368 22.3968 47.1707 12.5307 35.0003 12.5307C30.0403 12.5307 25.4589 14.1713 21.7754 16.9388C20.6618 17.7755 19.6301 18.7152 18.6945 19.7439L18.691 19.7126C18.5989 18.8694 18.6016 17.7549 18.609 16.0956L18.6271 12.0251Z" fill="white" stroke="white" stroke-linecap="round"/>
</svg>
