<svg width="30" height="36" viewBox="0 0 30 36" fill="none" xmlns="http://www.w3.org/2000/svg">
<path fill-rule="evenodd" clip-rule="evenodd" d="M14.5833 0C10.2111 0 6.66667 3.54441 6.66667 7.91667V8.33333H1.25C0.559644 8.33333 0 8.89298 0 9.58333C0 10.2737 0.559644 10.8333 1.25 10.8333H27.9167C28.607 10.8333 29.1667 10.2737 29.1667 9.58333C29.1667 8.89298 28.607 8.33333 27.9167 8.33333H22.5V7.91667C22.5 3.54441 18.9556 0 14.5833 0ZM14.5833 2.5C17.5749 2.5 20 4.92512 20 7.91667V8.33333H9.16667V7.91667C9.16667 4.92512 11.5918 2.5 14.5833 2.5Z" fill="#757575"/>
<path d="M4.16106 12.7984C4.09576 12.1112 3.48569 11.607 2.79843 11.6723C2.11117 11.7376 1.60697 12.3476 1.67227 13.0349C1.82972 14.692 2.11388 16.7339 2.47913 19.3584L2.94838 22.7302C3.39699 25.9548 3.65141 27.7835 4.20182 29.2816C5.22617 32.0697 7.05342 34.3047 9.40343 35.2964C10.6795 35.8349 12.1392 35.8343 14.3122 35.8334H14.8545C17.0275 35.8343 18.4871 35.8349 19.7632 35.2964C22.1132 34.3047 23.9405 32.0697 24.9648 29.2816C25.5153 27.7835 25.7697 25.9548 26.2183 22.7302L26.6875 19.3585C27.0528 16.7339 27.3369 14.692 27.4944 13.0349C27.5597 12.3476 27.0555 11.7376 26.3682 11.6723C25.681 11.607 25.0709 12.1112 25.0056 12.7984C24.8539 14.395 24.5775 16.3834 24.2073 19.0435L23.77 22.1852C23.2858 25.6646 23.0641 27.2059 22.6182 28.4195C21.7584 30.7597 20.3287 32.3443 18.7913 32.9931C18.0409 33.3097 17.1319 33.3333 14.5833 33.3333C12.0347 33.3333 11.1257 33.3097 10.3754 32.9931C8.83799 32.3443 7.40827 30.7597 6.54845 28.4195C6.1026 27.2059 5.88084 25.6646 5.39663 22.1852L4.9594 19.0435C4.5892 16.3834 4.31276 14.395 4.16106 12.7984Z" fill="#757575"/>
<path d="M12.5 14.5833C12.5 13.893 11.9404 13.3333 11.25 13.3333C10.5596 13.3333 10 13.893 10 14.5833V27.9167C10 28.607 10.5596 29.1667 11.25 29.1667C11.9404 29.1667 12.5 28.607 12.5 27.9167V14.5833Z" fill="#757575"/>
<path d="M19.1667 14.5833C19.1667 13.893 18.607 13.3333 17.9167 13.3333C17.2263 13.3333 16.6667 13.893 16.6667 14.5833V27.9167C16.6667 28.607 17.2263 29.1667 17.9167 29.1667C18.607 29.1667 19.1667 28.607 19.1667 27.9167V14.5833Z" fill="#757575"/>
</svg>
