<svg width="30" height="49" viewBox="0 0 30 49" fill="none" xmlns="http://www.w3.org/2000/svg">
<path d="M14.5732 0C17.4468 4.96044 29.1465 26.3458 29.1465 34.3672L29.1416 34.7412C28.9462 42.4338 22.7494 48.6386 15.043 48.8818V49.001C14.4214 48.9813 13.8095 48.922 13.21 48.8271C5.92334 48.1534 0.192631 42.1341 0.00488281 34.7412L0 34.3672C0 26.3458 11.6106 5.11413 14.5732 0ZM15.043 45.8799C21.2254 45.6343 26.1462 40.5657 26.1465 34.3672C26.1465 32.9151 25.5769 30.4917 24.4473 27.3154C23.3515 24.2345 21.8441 20.7531 20.2236 17.3145C18.4687 13.5904 16.6038 9.97535 15.043 7.05664V45.8799Z" fill="#03ADEB"/>
</svg>
